<svg xmlns="http://www.w3.org/2000/svg" xmlns:xlink="http://www.w3.org/1999/xlink" width="500" zoomAndPan="magnify" viewBox="0 0 375 374.999991" height="500" preserveAspectRatio="xMidYMid meet" version="1.0"><defs><g/><clipPath id="669fbebd8d"><path d="M 19.027344 20.101562 L 354.800781 20.101562 L 354.800781 354.863281 L 19.027344 354.863281 Z M 19.027344 20.101562 " clip-rule="nonzero"/></clipPath></defs><rect x="-37.5" width="450" fill="#ffffff" y="-37.499999" height="449.999989" fill-opacity="1"/><rect x="-37.5" width="450" fill="#fcfcfc" y="-37.499999" height="449.999989" fill-opacity="1"/><g clip-path="url(#669fbebd8d)"><path stroke-linecap="butt" transform="matrix(2.415707, 0, 0, 2.415707, 19.029215, 20.101072)" fill="none" stroke-linejoin="miter" d="M -0.000774688 0.000203162 L 139.475404 0.000203162 L 139.475404 138.577318 L -0.000774688 138.577318 Z M -0.000774688 0.000203162 " stroke="#02111b" stroke-width="2.483745" stroke-opacity="1" stroke-miterlimit="4"/></g><g fill="#02111b" fill-opacity="1"><g transform="translate(60.491176, 274.020882)"><g><path d="M 72.78125 2.375 C 60.707031 2.375 50.03125 -0.128906 40.75 -5.140625 C 31.46875 -10.160156 24.222656 -17.539062 19.015625 -27.28125 C 13.804688 -37.019531 11.203125 -48.71875 11.203125 -62.375 C 11.203125 -76.101562 13.804688 -87.832031 19.015625 -97.5625 C 24.222656 -107.300781 31.429688 -114.679688 40.640625 -119.703125 C 49.847656 -124.722656 60.375 -127.234375 72.21875 -127.234375 C 98.550781 -127.234375 115.414062 -117.6875 122.8125 -98.59375 L 101.3125 -83.203125 L 98.9375 -83.203125 C 96.363281 -89.085938 93.019531 -93.460938 88.90625 -96.328125 C 84.800781 -99.191406 79.238281 -100.625 72.21875 -100.625 C 63.164062 -100.625 56.109375 -97.492188 51.046875 -91.234375 C 45.992188 -84.972656 43.46875 -75.351562 43.46875 -62.375 C 43.46875 -49.539062 46.03125 -39.972656 51.15625 -33.671875 C 56.289062 -27.367188 63.5 -24.21875 72.78125 -24.21875 C 79.570312 -24.21875 85.328125 -26.046875 90.046875 -29.703125 C 94.765625 -33.367188 98.140625 -38.632812 100.171875 -45.5 L 102.5625 -45.734375 L 124.859375 -33.5 C 121.691406 -22.9375 115.820312 -14.316406 107.25 -7.640625 C 98.6875 -0.960938 87.195312 2.375 72.78125 2.375 Z M 72.78125 2.375 "/></g></g></g><g fill="#02111b" fill-opacity="1"><g transform="translate(189.185488, 274.020882)"><g><path d="M 18 0 L 18 -175 L 49.359375 -175 L 49.359375 -77.875 L 52.40625 -77.875 L 88.515625 -124.859375 L 120.328125 -124.859375 L 120.328125 -122.25 L 77.875 -67.46875 L 125.078125 -2.828125 L 125.078125 0 L 92.03125 0 L 52.40625 -52.640625 L 49.359375 -52.640625 L 49.359375 0 Z M 18 0 "/></g></g></g></svg>